inDegrees=no
num_controls=7
num_derivatives=13
num_iterations=99
num_multipliers=7
num_parameters=0
num_slacks=7
num_states=26
objective=0.516854
objective_accelerations=0.039998
objective_balance=0.002261
objective_effort=0.044508
objective_height=0.418445
objective_ligament=0.011642
solver_duration=1318.998730
status=Solve_Succeeded
success=true
DataType=double
version=3
OpenSimVersion=4.5
endheader
time	/jointset/ground_pelvis/pelvis_tilt/value	/jointset/ground_pelvis/pelvis_tx/value	/jointset/ground_pelvis/pelvis_ty/value	/jointset/hip_l/hip_flexion_l/value	/jointset/hip_l/hip_adduction_l/value	/jointset/hip_l/hip_rotation_l/value	/jointset/back/lumbar_extension/value	/jointset/patellofemoral_l/patellar_flexion_l/value	/jointset/knee_l/knee_flexion_l/value	/jointset/knee_l/knee_adduction_l/value	/jointset/knee_l/knee_rotation_l/value	/jointset/ankle_l/ankle_angle_l/value	/jointset/subtalar_l/subtalar_angle_l/value	/jointset/ground_pelvis/pelvis_tilt/speed	/jointset/ground_pelvis/pelvis_tx/speed	/jointset/ground_pelvis/pelvis_ty/speed	/jointset/hip_l/hip_flexion_l/speed	/jointset/hip_l/hip_adduction_l/speed	/jointset/hip_l/hip_rotation_l/speed	/jointset/back/lumbar_extension/speed	/jointset/patellofemoral_l/patellar_flexion_l/speed	/jointset/knee_l/knee_flexion_l/speed	/jointset/knee_l/knee_adduction_l/speed	/jointset/knee_l/knee_rotation_l/speed	/jointset/ankle_l/ankle_angle_l/speed	/jointset/subtalar_l/subtalar_angle_l/speed	/forceset/tau_hip_flexion_l	/forceset/tau_hip_adduction_l	/forceset/tau_hip_rotation_l	/forceset/tau_knee_flexion_l	/forceset/tau_ankle_angle_l	/forceset/tau_subtalar_angle_l	/forceset/tau_lumbar_extension	lambda_cid13_p0	lambda_cid13_p1	lambda_cid13_p2	lambda_cid13_p3	lambda_cid13_p4	lambda_cid13_p5	lambda_cid14_p0	/jointset/ground_pelvis/pelvis_tilt/accel	/jointset/ground_pelvis/pelvis_tx/accel	/jointset/ground_pelvis/pelvis_ty/accel	/jointset/hip_l/hip_flexion_l/accel	/jointset/hip_l/hip_adduction_l/accel	/jointset/hip_l/hip_rotation_l/accel	/jointset/back/lumbar_extension/accel	/jointset/patellofemoral_l/patellar_flexion_l/accel	/jointset/knee_l/knee_flexion_l/accel	/jointset/knee_l/knee_adduction_l/accel	/jointset/knee_l/knee_rotation_l/accel	/jointset/ankle_l/ankle_angle_l/accel	/jointset/subtalar_l/subtalar_angle_l/accel	gamma_cid13_p0	gamma_cid13_p1	gamma_cid13_p2	gamma_cid13_p3	gamma_cid13_p4	gamma_cid13_p5	gamma_cid14_p0
1	-0.1715909156501041	-0.09454893729040899	0.7238598998908111	1.276285412066736	-0.3282134560142705	-0.001613751388222095	-0.9599297672983302	1.161420642511902	1.1614206425123	-0.08188005211652505	-0.1745106640983123	0.1348964268178544	0.008708350870348446	0.1127996479230537	0.02695977953279024	0.06826248709967324	-0.3006426700496165	-0.001507566142703498	-0.05795772228304988	-0.002195481428355563	-0.1629686247040754	-0.1629686247040742	-0.006513101741443338	0.0001657335296823421	0.01615791221937484	0.004977828722725341	-0.4085638888016238	0.02537786590340168	-0.004993676335779764	-0.2884827711961365	0.1100771215971664	0.03532483881399248	0.4411027845886166	-15.1694687163358	-12.35497365336133	1.13785740973564	4.965489591592613	-788.0103134048658	-62.02773210504666	-1.776786133583341	0.9990897295901784	0.1927383318109221	1.255456119129198	-4.626419210625047	-0.007321383913284199	-1.408924472667018	0.4370923823713812	-4.127795058601984	-4.127795058601982	-0.1887296200386226	0.01349566934349774	-0.767629680765634	-0.263271312977728	-7.462313905887347e-09	-9.936146832761272e-09	3.693898640699069e-08	4.374907778937207e-10	-1.915436503042827e-08	5.186351642160921e-08	-1.065694318528828e-08
1.01	-0.1704134456941209	-0.09426965661941435	0.7246050183830953	1.273048801000766	-0.3282283150315542	-0.00226391756555085	-0.9599291283219477	1.159585172685738	1.159585172686011	-0.08195345021219601	-0.1745077525010399	0.1350198003009866	0.008745696350194941	0.1226885228479008	0.02890312965623735	0.08074381336589571	-0.3466411092899467	-0.001460211359279891	-0.07206775427673448	0.002346444032596457	-0.2040944030100837	-0.2040944030100822	-0.00816424534835981	0.0004097071337900363	0.008517000935434277	0.002495733937842749	-0.4075257774890615	0.02550528715108531	-0.005021172535433443	-0.2882566800168644	0.1100516279783858	0.03538709264805103	0.4405458607839122	-15.13104436628499	-12.39802699070975	1.155331158863134	4.795816033067258	-787.4070850482825	-62.09005700534913	-1.815288738196128	0.9829117314637443	0.1961505862700015	1.241856285651231	-4.580793344004978	0.01136644224523728	-1.410891385876413	0.4662177268130099	-4.100325773747268	-4.10032577374731	-0.1529735279540034	0.02882820465058045	-0.7622902310777777	-0.2400114516114368	-1.240103912856293e-08	-1.779906991292724e-08	4.956116354812682e-08	4.881515158212746e-09	-2.442663526117475e-08	5.902222468254143e-08	-1.404094826148192e-08
1.02	-0.1691372619173927	-0.09397073900045474	0.7254744272190987	1.269353358129768	-0.3282425799944474	-0.003054953827426597	-0.9598823750712948	1.157339373765086	1.157339373765212	-0.08204329310331425	-0.1745026051680129	0.1350667709955055	0.008758354304118999	0.1325424120740575	0.03088716912578025	0.09312055584344463	-0.3924090310609955	-0.001388755264866064	-0.08613173919670436	0.007027373447797181	-0.245034443601971	-0.2450344436019696	-0.00980206083270954	0.0006128806861426827	0.0008773544967129365	4.032353824341429e-05	-0.4064876661763439	0.0256327083988101	-0.005048668735115514	-0.2880305888375821	0.1100261343595939	0.03544934648215326	0.4399889369793464	-15.10305322726809	-12.43908177914769	1.172290137828393	4.663226629758845	-786.9443255468261	-62.14458472014252	-1.862892078088608	0.992092589852183	0.2008762010300272	1.234539361394476	-4.580315716768738	-0.002501121715262729	-1.399715057924115	0.464893173220399	-4.090647515777779	-4.090647515777862	-0.1860639955252659	0.00533565899242694	-0.7673767117218645	-0.2579344359211294	-1.805532080335193e-08	-2.632695932770521e-08	6.061222587507652e-08	1.096547998572068e-08	-3.189081644320611e-08	6.437759981249946e-08	-1.705174271211716e-08
1.03	-0.1677626175927428	-0.09365157536611635	0.7264671912151565	1.265200850355253	-0.3282559817115849	-0.003986335270034023	-0.9597870199036129	1.154684914008817	1.154684914009041	-0.08214954754221775	-0.174495547872936	0.1350376106309217	0.008746718296036019	0.1423924690514305	0.03297290301345011	0.1054263919170982	-0.4381117540999014	-0.001286152331817855	-0.100135144947312	0.01217458538530101	-0.2858465112385943	-0.2858465112385959	-0.01145504665998178	0.0007958962522867019	-0.006683207174098197	-0.002351924231938507	-0.4069196473692013	0.02601660790276305	-0.005084457427379696	-0.287324781044635	0.1098013672499108	0.03563797431373411	0.4410671827226358	-15.18225343114398	-12.52431292813817	1.205499075279168	4.238834058195682	-787.478212447836	-62.21002289611039	-1.919879781379799	0.9823629607121404	0.2165272234630004	1.227720091805726	-4.568137930186486	0.01745420836735571	-1.399261405644425	0.5592739967994474	-4.07483289560086	-4.074832895601348	-0.1558604395602618	0.02439902988639001	-0.746465308371124	-0.2275324083969334	-2.371690407459107e-08	-3.486163411324454e-08	7.164725641820799e-08	1.706617889942444e-08	-3.93773640635159e-08	6.971457358397816e-08	-2.005872889106302e-08
1.04	-0.1662892925565242	-0.09331073334473697	0.7275828364442424	1.260590737883804	-0.328268194757884	-0.005057472384530705	-0.9596362648579333	1.151622664274584	1.1516226642749	-0.08227252075203162	-0.1744867375173196	0.1349336307669074	0.008711627318085164	0.1522785543901268	0.03522284653397639	0.1176968024489654	-0.4839299704482126	-0.001151021096679949	-0.1140828735785288	0.01810734903419117	-0.3265924391950656	-0.3265924391950698	-0.01314581501653619	0.0009634927968689815	-0.01408654538932407	-0.004650670435328714	-0.4073516285619992	0.02640050740674281	-0.005120246119693064	-0.28661897325168	0.1095766001402304	0.03582660214534754	0.4421454284659764	-15.27206551533273	-12.60760367020191	1.238304669843349	3.849342336448187	-788.1568169985184	-62.26827139323304	-1.986587789006348	0.9992982621169484	0.2337181276012682	1.227454253037169	-4.60341437864982	0.004004538702641326	-1.388579634046005	0.6220035154973814	-4.077419579747344	-4.077419579747367	-0.1936205013816947	0.002251854679991607	-0.7359320206048761	-0.2392341225628488	-2.582662586313692e-08	-4.315508478729475e-08	7.966068451013448e-08	1.659052325880672e-08	-4.224373542712892e-08	7.177741445419937e-08	-2.251122488197458e-08
1.05	-0.1647173322022055	-0.09294660068068981	0.7288208703918991	1.255522540017035	-0.3282788655978481	-0.006267760065726191	-0.9594220217840437	1.148153407712488	1.148153407712985	-0.08241257578755032	-0.1744763312923226	0.134756263171458	0.008653999000681983	0.1620778595954729	0.03762811899717406	0.1298901625273076	-0.5296599712047456	-0.0009727833884507293	-0.1279641994466121	0.02489707205083678	-0.3672352732510825	-0.3672352732510821	-0.01486343394609372	0.001116149111007383	-0.0213739918969514	-0.006858396400260344	-0.407099872549396	0.0267253495841428	-0.00516425083849107	-0.2858926275122791	0.1095704432127422	0.03603710064945525	0.4426581906989795	-15.25376676145711	-12.7215917711031	1.278596513786729	3.406065165302069	-788.2320673110155	-62.3798615212343	-2.063429816646951	0.9648958946769309	0.2475998888318778	1.212294181287125	-4.550351546263954	0.02628502792149909	-1.386362916454778	0.7308276403385684	-4.054170308651151	-4.054170308650527	-0.1605836666069783	0.02155238814950105	-0.7232067142873668	-0.2090541378766332	-2.782535198034863e-08	-5.144099720786093e-08	8.757968752546082e-08	1.59093565383665e-08	-4.496572628272019e-08	7.373793867125629e-08	-2.494639305451008e-08
1.06	-0.1630484489468592	-0.09255768167538132	0.7301802413995507	1.249998530418277	-0.3282874437325258	-0.007616551776237828	-0.9591352072908518	1.144278431811811	1.144278431812485	-0.082569757227931	-0.1744644425305156	0.1345064099612427	0.008574790962745823	0.1716631345981902	0.04018011478624505	0.1419642144478378	-0.575092316845642	-0.0007324800386923067	-0.1417836794453022	0.03262163289112625	-0.4077363069119891	-0.407736306911984	-0.01657109599021916	0.001260000159894378	-0.02858366834240629	-0.008966614541924137	-0.406848116536752	0.0270501917615633	-0.005208255557354597	-0.2851662817728714	0.1095642862852584	0.03624759915358912	0.4431709529320174	-15.24606892296695	-12.8337689218434	1.318651328346761	2.995172262800782	-788.4533277934411	-62.48579157890325	-2.150826238487443	0.9564922215912771	0.2630627927758963	1.203592621474769	-4.54388335552252	0.01641766700844513	-1.376210460167448	0.8089710802260552	-4.049059500725257	-4.049059500725266	-0.191629124295272	0.0004908016296206986	-0.7203780081704378	-0.2193325579093406	-3.024919380123868e-08	-5.952799288589185e-08	9.405443422870742e-08	1.646781654807429e-08	-4.841345552255873e-08	7.47422630341032e-08	-2.709435862385495e-08
1.07	-0.1612846558382481	-0.09214249408954386	0.7316597165089742	1.244021643696545	-0.3282933217706133	-0.009103094827186305	-0.9587666653740592	1.139999249405796	1.139999249405934	-0.08274409588649068	-0.1744511644510368	0.1341848565407314	0.008474984781836208	0.1810710377754284	0.04288335448783562	0.1539068398793077	-0.6202379530433606	-0.0004316492889912041	-0.1555063109262446	0.04122537688110812	-0.4480671370496809	-0.448067137049685	-0.018299788977777	0.001394868190212205	-0.03571265238253655	-0.0109762858691464	-0.406237892464937	0.0274228524522359	-0.005258340242912088	-0.2842730635091265	0.1096068665337984	0.03646466557876301	0.4433745792608604	-15.19597744965098	-12.95858776325361	1.363424534658951	2.531871820572082	-788.2704731626137	-62.59493266591828	-2.249267469089813	0.9292694043905114	0.277850802035369	1.185991941055792	-4.492846452536517	0.03863442355620992	-1.367524017373394	0.9068700202711958	-4.0201333084966	-4.020133308498074	-0.1639802150748943	0.01989584852196207	-0.7070079097546211	-0.1890347306574366	-3.269564815955843e-08	-6.760440788612834e-08	1.004523587876945e-07	1.709221414981123e-08	-5.189978786794234e-08	7.569572570257721e-08	-2.922704745898755e-08
